<svg xmlns="http://www.w3.org/2000/svg" width="375" height="422" viewBox="0 0 375 422">
    <g fill="none" fill-rule="evenodd">
        <g>
            <g>
                <path fill="#CBCED8" d="M0 55c62.989 36.667 125.655 55 188 55s124.678-18.333 187-55v370H0V55z" opacity=".3" transform="translate(0 -245) translate(0 242)"/>
                <path fill="#CBCED8" d="M0 67c62.989 34.667 125.655 52 188 52s124.678-17.333 187-52v358H0V67z" opacity=".3" transform="translate(0 -245) translate(0 242)"/>
                <path fill="#CBCED8" d="M123.782 67c5.076-.01 9.764 2.701 12.261 7.092 3.971 1.524 6.682 5.21 6.937 9.43l.002.016v.033c.003.008.003.017.003.028.008.155.013.316.015.473v.143c-.025 5.589-4.326 10.241-9.93 10.742-.104.028-.211.043-.32.043h-23.062c-.137 0-.274-.022-.405-.064-4.172-.505-7.303-4.033-7.283-8.209.006-4.408 3.486-8.04 7.918-8.262 1.208-6.657 7.054-11.492 13.864-11.465zM230 40c10.63-.042 19.755 7.555 21.64 18.016 6.919.35 12.352 6.057 12.36 12.984.032 6.561-4.855 12.107-11.368 12.9-.204.066-.418.1-.632.1h-36c-.169 0-.337-.023-.5-.068-8.747-.786-15.461-8.098-15.5-16.88v-.224c.004-.248.012-.5.024-.744v-.004c0-.013 0-.027.004-.04v-.052l.004-.024c.398-6.633 4.629-12.425 10.828-14.82C214.76 44.245 222.075 39.985 230 40z" transform="translate(0 -245) translate(0 242) matrix(-1 0 0 1 366 0)"/>
                <g transform="translate(0 -245) translate(0 242) translate(147 41)">
                    <path fill="#F8F8F8" d="M16.2 4.701L36.72 4.701 36.72 14.339 7.02 14.339zM73.71 14.339L42.39 14.339 42.39 4.701 64.8 4.701zM5.4 54.534L75.6 54.534 75.6 19.04 5.4 19.04z"/>
                    <path fill="#97A4C5" d="M5.4 54.534h70.2V19.04H5.4v35.494zM16.2 4.7h20.52v9.638H7.02L16.2 4.7zm57.51 9.638H42.39V4.7H64.8l8.91 9.638zm7.29.235L67.5 0H13.77L.27 14.339l-.27.235v42.31C0 58.06 1.08 59 2.43 59h76.14c1.35 0 2.43-.94 2.43-2.116v-42.31z"/>
                    <path fill="#97A4C5" d="M33 50L49 50 49 45 33 45z"/>
                    <circle cx="18.5" cy="34.5" r="4.5" fill="#CBCED8"/>
                    <circle cx="61.5" cy="34.5" r="4.5" fill="#CBCED8"/>
                </g>
                <g fill="#97A4C5" transform="translate(0 -245) translate(0 242) rotate(45 62.852 307.276)">
                    <rect width="1.778" height="6.222" x="7.111" rx=".889"/>
                    <path d="M8 8.889c.49 0 .889.398.889.889v4.444c0 .491-.398.89-.889.89-.49 0-.889-.399-.889-.89V9.778c0-.491.398-.89.889-.89z"/>
                    <path d="M12.444 4.444c.491 0 .89.398.89.89v4.444c0 .49-.399.889-.89.889-.49 0-.888-.398-.888-.89V5.334c0-.49.398-.889.888-.889z" transform="rotate(90 12.444 7.556)"/>
                    <path d="M3.556 4.444c.49 0 .888.398.888.89v4.444c0 .49-.398.889-.888.889-.491 0-.89-.398-.89-.89V5.334c0-.49.399-.889.89-.889z" transform="rotate(90 3.556 7.556)"/>
                </g>
                <g fill="#97A4C5" transform="translate(0 -245) translate(0 242) rotate(45 53.444 192.379)">
                    <rect width="1.778" height="6.222" x="7.111" rx=".889"/>
                    <path d="M8 8.889c.49 0 .889.398.889.889v4.444c0 .491-.398.89-.889.89-.49 0-.889-.399-.889-.89V9.778c0-.491.398-.89.889-.89z"/>
                    <path d="M12.444 4.444c.491 0 .89.398.89.89v4.444c0 .49-.399.889-.89.889-.49 0-.888-.398-.888-.89V5.334c0-.49.398-.889.888-.889z" transform="rotate(90 12.444 7.556)"/>
                    <path d="M3.556 4.444c.49 0 .888.398.888.89v4.444c0 .49-.398.889-.888.889-.491 0-.89-.398-.89-.89V5.334c0-.49.399-.889.89-.889z" transform="rotate(90 3.556 7.556)"/>
                </g>
                <g fill="#97A4C5" transform="translate(0 -245) translate(0 242) rotate(45 74.53 254.522)">
                    <rect width="1.111" height="3.889" x="4.444" rx=".556"/>
                    <path d="M5 5.556c.307 0 .556.248.556.555V8.89c0 .307-.25.555-.556.555-.307 0-.556-.248-.556-.555V6.11c0-.307.25-.555.556-.555z"/>
                    <path d="M7.778 2.778c.307 0 .555.249.555.555v2.778c0 .307-.248.556-.555.556-.307 0-.556-.25-.556-.556V3.333c0-.306.249-.555.556-.555z" transform="rotate(90 7.778 4.722)"/>
                    <path d="M2.222 2.778c.307 0 .556.249.556.555v2.778c0 .307-.249.556-.556.556-.307 0-.555-.25-.555-.556V3.333c0-.306.248-.555.555-.555z" transform="rotate(90 2.222 4.722)"/>
                </g>
                <g fill="#97A4C5" transform="translate(0 -245) translate(0 242) rotate(45 95.879 232.896)">
                    <rect width="1.333" height="4.667" x="5.333" rx=".667"/>
                    <path d="M6 6.667c.368 0 .667.298.667.666v3.334c0 .368-.299.666-.667.666-.368 0-.667-.298-.667-.666V7.333c0-.368.299-.666.667-.666z"/>
                    <path d="M9.333 3.333c.369 0 .667.299.667.667v3.333c0 .369-.298.667-.667.667-.368 0-.666-.298-.666-.667V4c0-.368.298-.667.666-.667z" transform="rotate(90 9.333 5.667)"/>
                    <path d="M2.667 3.333c.368 0 .666.299.666.667v3.333c0 .369-.298.667-.666.667C2.298 8 2 7.702 2 7.333V4c0-.368.298-.667.667-.667z" transform="rotate(90 2.667 5.667)"/>
                </g>
                <path stroke="#CBCED8" stroke-dasharray="2" d="M221.98 39.5c-.448-7.104 2.92-10.656 10.106-10.656s10.442-3.782 9.769-11.344" transform="translate(0 -245) translate(0 242) rotate(10 231.941 28.5)"/>
                <g fill="#CBCED8" fill-rule="nonzero">
                    <path d="M5.262.086c0 .03.124.284.278.553.79 1.345.99 2.211.99 4.11 0 1.016-.046 2.032-.107 2.286-.078.344-.047.448.123.448.233 0 .31-.209.635-1.838.124-.687.155-1.345.062-2.092-.124-1.046-.17-1.24-.588-2.078C6.283.713 5.262-.303 5.262.085zM2.12 1.864c-.99.523-1.284 1.15-1.238 2.69.031 1.091.17 1.659.728 2.93.061.149-.062.313-.372.492C.34 8.5 0 8.978 0 9.77c0 1.51 1.408 2.047 3.157 1.21.433-.209.898-.463 1.022-.568.526-.433.557-.388.495.957-.078 1.644.14 2.227.975 2.525.495.165.619.15 1.222-.134.697-.314.975-.717 1.053-1.57.046-.433.077-.448 1.052-.552 1.362-.135 2.151-.314 2.709-.613C12.705 10.487 13 10.024 13 9.008c0-.613-.077-.807-.464-1.196-1.176-1.196-2.848-1.196-5.37 0-.589.269-1.1.508-1.161.538-.062.03-.093-.777-.093-1.793.015-1.928-.124-2.57-.758-3.572-.681-1.091-2.105-1.614-3.034-1.12zm7.878 2.57c-.882.3-1.563.748-2.028 1.346-.418.538-.449.836-.046.478.201-.195.371-.284 1.47-.882.681-.374 1.749-.359 2.538.03.712.344.898.284.62-.21-.372-.657-1.672-1.045-2.554-.762z" transform="translate(0 -245) translate(0 242) translate(241 5)"/>
                </g>
            </g>
        </g>
    </g>
</svg>
