<svg width="375.00000000000006" height="85" xmlns="http://www.w3.org/2000/svg" xmlns:xlink="http://www.w3.org/1999/xlink">
 <defs>
  <path id="g7yx4zpowb" d="m143,33c4.323,0.253 7.089,1.82 8.297,4.702c0.166,1.313 0.4,2.605 0.701,3.87l0.002,0.076l0.016,0c3.895,16.264 18.528,28.352 35.984,28.352c17.456,0 32.09,-12.089 35.984,-28.351l0.016,0l0,-0.08c0.314,-1.311 0.555,-2.65 0.722,-4.012c1.081,-2.595 3.385,-4.1 6.909,-4.519l0.356,-0.038l133.013,0c5.523,0 10,4.477 10,10l0,36l-375,0l0,-36c0,-5.523 4.477,-10 10,-10l133,0zm45,-33c17.12,0 31,13.88 31,31c0,17.12 -13.88,31 -31,31c-17.12,0 -31,-13.88 -31,-31c0,-17.12 13.88,-31 31,-31z"/>
  <filter id="svg_3_blur" x="-50%" y="-50%" width="200%" height="200%">
   <feGaussianBlur stdDeviation="4"/>
  </filter>
 </defs>
 <g>
  <title>background</title>
  <rect x="-1" y="-1" width="377" height="87" id="canvas_background" fill="none"/>
 </g>
 <g>
  <title>Layer 1</title>
  <use filter="url(#svg_3_blur)" opacity="0.3" fill="#000" xlink:href="#g7yx4zpowb" y="5.987463" x="-0.110619" id="svg_3"/>
  <use fill="#FFF" xlink:href="#g7yx4zpowb" y="6.002215" x="-0.110619" id="svg_4"/>
 </g>
</svg>