<svg xmlns="http://www.w3.org/2000/svg" xmlns:xlink="http://www.w3.org/1999/xlink" width="25" height="24" viewBox="0 0 25 24">
    <defs>
        <linearGradient id="l0a38g8wna" x1="50%" x2="50%" y1="0%" y2="100%">
            <stop offset="0%" stop-color="#6D7FA1"/>
            <stop offset="100%" stop-color="#A6B1C8"/>
        </linearGradient>
        <linearGradient id="x2sruxllvc" x1="50%" x2="50%" y1="0%" y2="100%">
            <stop offset="0%" stop-color="#6D7FA1"/>
            <stop offset="100%" stop-color="#A6B1C8"/>
        </linearGradient>
        <path id="c31556w52b" d="M0 0.002L19.985 0.002 19.985 19.972 0 19.972z"/>
    </defs>
    <g fill="none" fill-rule="evenodd">
        <g>
            <g>
                <g>
                    <g transform="translate(-10 -517) translate(0 504) translate(10 13) translate(2 2)">
                        <path fill="url(#l0a38g8wna)" d="M11.742 4.21L9.97 5.933 8.268 4.219c-.29-.293-.76-.292-1.051.001-.29.293-.289.767 0 1.06l1.681 1.69H7.754c-.41 0-.743.336-.743.75 0 .413.333.748.743.748h1.48v.749h-1.48c-.41 0-.743.335-.743.749 0 .413.333.749.743.749h1.48v1.536c0 .414.334.749.744.749s.743-.335.743-.749v-1.536h1.492c.411 0 .743-.336.743-.75 0-.413-.332-.748-.743-.748h-1.492v-.749h1.492c.411 0 .743-.335.743-.749 0-.413-.332-.749-.743-.749h-1.17l1.73-1.681c.295-.289.303-.762.019-1.06-.285-.297-.755-.306-1.05-.019z"/>
                        <mask id="3k2jxovtid" fill="#fff">
                            <use xlink:href="#c31556w52b"/>
                        </mask>
                        <path fill="url(#x2sruxllvc)" d="M9.108 18.545h-.934c-2.26 0-5.72-3.395-6.527-5.442-.235-.595-.156-.835-.124-.862.095-.082.151-.082.181-.082.501 0 1.496 1.019 2.222 1.762.932.954 1.896 1.94 2.933 2.326 1.973.735 3.818.889 5.019.889.958 0 1.565-.097 1.59-.102.262-.043.48-.217.571-.458.092-.24.043-.51-.128-.706-.625-.716-1.357-1.602-1.558-1.904.006-.013.012-.023.008-.026.529.078 3.76 1.293 6.142 2.228v2.377H9.108zm7.14-4.783c1.437-1.507 2.258-3.494 2.258-5.548 0-4.528-3.823-8.212-8.522-8.212S1.463 3.686 1.463 8.214c0 .362.024.722.071 1.07.053.391.428.662.831.616.406-.051.692-.41.639-.801-.04-.287-.06-.585-.06-.885 0-3.74 3.159-6.784 7.04-6.784 3.882 0 7.04 3.044 7.04 6.784 0 1.89-.79 3.645-2.225 4.942-.018.017-.026.04-.043.057-.992-.356-1.837-.636-2.17-.685-.577-.087-1.128.17-1.462.645-.278.397-.349.867-.187 1.256.099.237.475.734.92 1.278-1.074-.002-2.716-.142-4.464-.792-.724-.27-1.608-1.175-2.388-1.973-1.111-1.138-2.16-2.212-3.301-2.212-.425 0-.828.153-1.166.442-.422.362-.813 1.078-.278 2.438.987 2.502 4.83 6.362 7.913 6.362h11.071c.41 0 .741-.32.741-.714v-3.57c.002-.289-.18-.55-.458-.66-.473-.188-1.858-.732-3.28-1.266z" mask="url(#3k2jxovtid)"/>
                    </g>
                </g>
            </g>
        </g>
    </g>
</svg>
