<svg xmlns="http://www.w3.org/2000/svg" xmlns:xlink="http://www.w3.org/1999/xlink" width="25" height="24" viewBox="0 0 25 24">
    <defs>
        <linearGradient id="bgat7jgo2b" x1="50%" x2="50%" y1="0%" y2="100%">
            <stop offset="0%" stop-color="#6D7FA1"/>
            <stop offset="100%" stop-color="#A6B1C8"/>
        </linearGradient>
        <path id="z14j8dcoka" d="M0 0L18 0 18 20 0 20z"/>
    </defs>
    <g fill="none" fill-rule="evenodd">
        <g>
            <g>
                <g>
                    <g transform="translate(-10 -566) translate(0 554) translate(10 12) translate(3 2)">
                        <mask id="booo4gsjuc" fill="#fff">
                            <use xlink:href="#z14j8dcoka"/>
                        </mask>
                        <path fill="url(#bgat7jgo2b)" d="M15.112 14.993H2.889c-.492.009-.984-.024-1.47-.097-.01-.202.11-.334.394-.46.871-.369 1.448-1.192 1.484-2.116V8.678c0-3.057 3.454-5.105 4.089-5.355l.445-.17v-.465c.002-.134.06-1.305 1.14-1.305h.05c1.084-.007 1.145 1.17 1.148 1.3v.466l.445.175c.635.25 4.089 2.298 4.089 5.355v3.642c.035.924.612 1.747 1.484 2.116.283.125.404.258.393.46-.485.073-.977.105-1.468.096zM8.97 18.618c-1.43 0-2.605-.989-2.725-2.243h5.451c-.12 1.254-1.296 2.243-2.726 2.243zm7.807-5.44c-.364-.145-.615-.476-.652-.858V8.678c0-3.447-3.203-5.733-4.58-6.45-.076-.427-.273-1.074-.788-1.572C10.295.221 9.673-.016 9.03.001h-.06c-.643-.017-1.265.22-1.727.656-.515.497-.712 1.144-.788 1.572-1.376.717-4.58 3.003-4.58 6.449v3.63c-.032.387-.284.723-.652.87-1.261.56-1.388 1.618-1.085 2.422.147.392.481.775 2.75.775h1.929C4.937 18.392 6.753 20 8.97 20c2.217 0 4.033-1.608 4.153-3.625h1.989c2.269 0 2.603-.383 2.75-.775.303-.804.176-1.862-1.085-2.421z" mask="url(#booo4gsjuc)"/>
                    </g>
                </g>
            </g>
        </g>
    </g>
</svg>
