<svg xmlns="http://www.w3.org/2000/svg" xmlns:xlink="http://www.w3.org/1999/xlink" width="26" height="24" viewBox="0 0 26 24">
    <defs>
        <linearGradient id="oixdaqz8cb" x1="50%" x2="50%" y1="0%" y2="100%">
            <stop offset="0%" stop-color="#6D7FA1"/>
            <stop offset="100%" stop-color="#A6B1C8"/>
        </linearGradient>
        <path id="m8whuebita" d="M0 0L19.737 0 19.737 20 0 20z"/>
    </defs>
    <g fill="none" fill-rule="evenodd">
        <g>
            <g>
                <g>
                    <g transform="translate(-10 -357) translate(0 344) translate(10 13) translate(3.125 2)">
                        <mask id="4rprm5w3ic" fill="#fff">
                            <use xlink:href="#m8whuebita"/>
                        </mask>
                        <path fill="url(#oixdaqz8cb)" d="M3.434 7.479c-.249 0-.478-.126-.602-.33-.124-.203-.124-.455 0-.658.124-.204.353-.33.602-.33h11.283c.248 0 .478.126.602.33.124.203.124.455 0 .658-.124.204-.354.33-.602.33H3.434zm.088 4.133c-.28 0-.538-.142-.677-.371-.14-.23-.14-.512 0-.741.14-.23.398-.37.677-.37h6.005c.28 0 .537.14.677.37.14.23.14.512 0 .741-.14.23-.398.37-.677.37H3.522zm-.21 4.449c-.321 0-.584-.334-.584-.741 0-.408.264-.741.584-.741H7.98c.32 0 .583.332.583.74 0 .41-.264.742-.583.742H3.312zM1.407 3.524v14.498c.005.364.318.657.703.657h15.516c.385 0 .698-.293.703-.657V3.524c-.005-.364-.318-.658-.703-.657h-2.118v.186c0 .37-.316.669-.705.669-.39 0-.706-.3-.706-.669v-.186H6.341v.186c-.016.358-.327.64-.705.64-.377 0-.688-.282-.704-.64v-.186H2.108c-.384 0-.697.293-.701.657zM2.11 20c-1.156.004-2.1-.878-2.11-1.973V3.529c.01-1.096.954-1.977 2.11-1.973h2.823V.669c.016-.358.327-.64.705-.64.377 0 .688.282.704.64v.887h7.756V.669c0-.37.316-.669.706-.669.39 0 .705.3.705.669v.887h2.118c1.156-.004 2.099.877 2.11 1.973v14.498c-.011 1.095-.954 1.977-2.11 1.973H2.11z" mask="url(#4rprm5w3ic)"/>
                    </g>
                </g>
            </g>
        </g>
    </g>
</svg>
