<svg xmlns="http://www.w3.org/2000/svg" xmlns:xlink="http://www.w3.org/1999/xlink" width="26" height="24" viewBox="0 0 26 24">
    <defs>
        <linearGradient id="x4z1v3h7hb" x1="50%" x2="50%" y1="0%" y2="100%">
            <stop offset="0%" stop-color="#6D7FA1"/>
            <stop offset="100%" stop-color="#A6B1C8"/>
        </linearGradient>
        <linearGradient id="l1r5nsfcpe" x1="50%" x2="50%" y1="0%" y2="100%">
            <stop offset="0%" stop-color="#6D7FA1"/>
            <stop offset="100%" stop-color="#A6B1C8"/>
        </linearGradient>
        <linearGradient id="dg3093xdtg" x1="50%" x2="50%" y1="0%" y2="100%">
            <stop offset="0%" stop-color="#6D7FA1"/>
            <stop offset="100%" stop-color="#A6B1C8"/>
        </linearGradient>
        <path id="kcb9qxy1ta" d="M0.018 0.009L14.617 0.009 14.617 18.635 0.018 18.635z"/>
        <path id="1hnaaajxid" d="M0 0.025L12.537 0.025 12.537 17.987 0 17.987z"/>
    </defs>
    <g fill="none" fill-rule="evenodd">
        <g>
            <g>
                <g>
                    <g>
                        <g transform="translate(-10 -407) translate(0 394) translate(10 13) translate(1 1.5) translate(7.84 2.5)">
                            <mask id="q1b8uiqvpc" fill="#fff">
                                <use xlink:href="#kcb9qxy1ta"/>
                            </mask>
                            <path fill="url(#x4z1v3h7hb)" d="M14.52 7.167c-.199-1.351-.715-2.654-1.518-3.83-.345-.504-.72-.969-1.132-1.4l.75.124c.052.011.105.023.17.023.146 0 .304-.046.462-.125.183-.112.314-.276.37-.463V1.44c.04-.181 0-.373-.132-.531-.132-.159-.33-.272-.541-.317L9.518.027c-.422-.09-.884.17-1.003.565v.056c-.04.182 0 .373.132.531.111.132.265.233.442.29.033.034.07.066.112.095.977.678 1.782 1.48 2.441 2.452.694 1.015 1.139 2.142 1.307 3.31.159 1.13.065 2.277-.277 3.378-.344 1.103-.936 2.14-1.742 3.05-.831.95-1.874 1.729-3.088 2.327H7.83c-1.045.529-2.194.889-3.391 1.062-1.154.168-2.333.16-3.484-.022-.212-.034-.422.011-.594.113-.173.104-.292.262-.33.44-.037.178.01.361.132.509.122.148.307.25.515.282.699.113 1.399.17 2.098.17.65 0 1.299-.046 1.94-.136 1.386-.192 2.705-.61 3.92-1.22 1.388-.68 2.6-1.595 3.562-2.689.933-1.05 1.614-2.248 2.006-3.525.408-1.268.516-2.593.317-3.898" mask="url(#q1b8uiqvpc)"/>
                        </g>
                        <g transform="translate(-10 -407) translate(0 394) translate(10 13) translate(1 1.5) translate(.523 .5)">
                            <mask id="k7ewht0k5f" fill="#fff">
                                <use xlink:href="#1hnaaajxid"/>
                            </mask>
                            <path fill="url(#l1r5nsfcpe)" d="M3.477 4.857c.786-.941 1.772-1.716 2.907-2.32 1.622-.842 3.469-1.235 5.365-1.156h.038c.398-.001.726-.281.748-.639.025-.37-.3-.684-.711-.706-2.183-.09-4.317.37-6.176 1.334-1.313.675-2.459 1.583-3.369 2.669C1.397 5.08.753 6.27.383 7.537c-.374 1.26-.475 2.574-.3 3.869.184 1.336.668 2.626 1.423 3.79.18.3.38.593.604.877l-.729-.126c-.212-.045-.437 0-.624.111-.174.113-.3.281-.325.46v.045c-.099.36.188.74.625.84l3.244.562c.05.01.112.022.162.022.35 0 .686-.235.798-.583v-.055c.038-.18 0-.37-.124-.528-.125-.157-.313-.269-.512-.314l-.107-.018-.03-.027c-.711-.594-1.248-1.222-1.66-1.917 0-.009-.005-.017-.012-.023-.656-1.008-1.076-2.126-1.235-3.285-.16-1.121-.076-2.26.25-3.352.33-1.094.89-2.121 1.646-3.028" mask="url(#k7ewht0k5f)"/>
                        </g>
                        <path fill="url(#dg3093xdtg)" d="M10.736 13.226v1.644c0 .318.286.588.669.63h.204c.41 0 .723-.247.723-.596v-1.678h3c.423 0 .737-.259.723-.597v-.123c0-.338-.3-.597-.723-.597h-3v-1.576h3c.491 0 .873-.304.873-.72v-.125c0-.416-.382-.72-.873-.72h-2.974l2.279-1.767c.353-.284.383-.745.068-1.059l-.014-.01c-.382-.316-.982-.338-1.336-.046l-1.809 1.403-1.75-1.538c-.383-.315-.983-.337-1.337-.045-.382.316-.409.81-.054 1.103l2.218 1.96H7.668c-.505 0-.873.314-.873.72v.123c0 .417.382.72.873.72h3.068v1.577H7.668c-.41 0-.723.248-.723.597v.123c0 .338.3.597.723.597H10.736z" transform="translate(-10 -407) translate(0 394) translate(10 13) translate(1 1.5)"/>
                    </g>
                </g>
            </g>
        </g>
    </g>
</svg>
