<svg xmlns="http://www.w3.org/2000/svg" xmlns:xlink="http://www.w3.org/1999/xlink" width="25" height="24" viewBox="0 0 25 24">
    <defs>
        <linearGradient id="aor0y6v5db" x1="50%" x2="50%" y1="0%" y2="100%">
            <stop offset="0%" stop-color="#6D7FA1"/>
            <stop offset="100%" stop-color="#A6B1C8"/>
        </linearGradient>
        <linearGradient id="vedenwhrud" x1="50%" x2="50%" y1="0%" y2="100%">
            <stop offset="0%" stop-color="#6D7FA1"/>
            <stop offset="100%" stop-color="#A6B1C8"/>
        </linearGradient>
        <path id="qxzz7pztea" d="M0 0.02L19.98 0.02 19.98 20 0 20z"/>
    </defs>
    <g fill="none" fill-rule="evenodd">
        <g>
            <g>
                <g>
                    <g transform="translate(-10 -617) translate(0 604) translate(10 13) translate(2 2)">
                        <mask id="9w13k8abec" fill="#fff">
                            <use xlink:href="#qxzz7pztea"/>
                        </mask>
                        <path fill="url(#aor0y6v5db)" d="M9.99 18.19c-4.515-.006-8.174-3.665-8.18-8.18.006-4.515 3.665-8.174 8.18-8.18 4.515.006 8.174 3.665 8.18 8.18-.006 4.515-3.665 8.174-8.18 8.18m0-18.17C4.482.02 0 4.5 0 10.01 0 15.518 4.482 20 9.99 20c5.509 0 9.99-4.482 9.99-9.99C19.98 4.5 15.5.02 9.99.02" mask="url(#9w13k8abec)"/>
                        <path fill="url(#vedenwhrud)" d="M8.666 14.7c0 .718.597 1.3 1.334 1.3.736 0 1.333-.582 1.333-1.3 0-.718-.597-1.3-1.333-1.3-.737 0-1.334.582-1.334 1.3M9.902 3.006c-1.58.071-2.802.85-3.44 2.194-.287.613-.444 1.276-.462 1.95l1.868.003c0-.007.01-.633.31-1.234.354-.71.928-1.058 1.81-1.097.87-.04 1.493.208 1.846.733.352.524.32 1.131.25 1.27-.286.477-.854 1.046-1.267 1.464-.203.202-.377.377-.51.529l-.095.106c-.419.467-1.2 1.335-1.2 3.176h1.866c0-1.157.394-1.594.739-1.977l.116-.13c.092-.105.253-.268.425-.44.48-.484 1.139-1.145 1.539-1.813.48-.797.381-2.09-.234-3.077-.41-.659-1.417-1.752-3.56-1.657"/>
                    </g>
                </g>
            </g>
        </g>
    </g>
</svg>
