<svg xmlns="http://www.w3.org/2000/svg" xmlns:xlink="http://www.w3.org/1999/xlink" width="26" height="24" viewBox="0 0 26 24">
    <defs>
        <linearGradient id="5qqydd1ctb" x1="50%" x2="50%" y1="0%" y2="100%">
            <stop offset="0%" stop-color="#6D7FA1"/>
            <stop offset="100%" stop-color="#A6B1C8"/>
        </linearGradient>
        <path id="2q8uv9ffaa" d="M0.521 0L21.354 0 21.354 18 0.521 18z"/>
    </defs>
    <g fill="none" fill-rule="evenodd">
        <g>
            <g>
                <g>
                    <g transform="translate(-10 -457) translate(0 444) translate(10 13) translate(1.563 3)">
                        <mask id="83ka6rxa3c" fill="#fff">
                            <use xlink:href="#2q8uv9ffaa"/>
                        </mask>
                        <path fill="url(#5qqydd1ctb)" d="M7.833 4.55c.332-.273.824-.228 1.1.099l2.004 2.375 2.004-2.375c.18-.212.459-.313.734-.266.275.047.504.235.6.494.096.258.046.548-.133.76l-1.754 2.077h1.154c.413 0 .755.319.78.726v.046c0 .426-.349.771-.78.771h-1.693v1.029h1.693c.413 0 .755.318.78.726v.045c0 .426-.349.772-.78.772h-1.693v1.028c0 .409-.323.746-.736.77l-.045.002c-.432 0-.782-.346-.782-.772V11.83H8.333c-.413 0-.755-.319-.78-.727l-.001-.045c0-.426.35-.771.781-.771h1.953V9.257H8.333c-.413 0-.755-.318-.78-.726l-.001-.045c0-.426.35-.772.781-.772h1.153L7.733 5.637c-.264-.313-.236-.775.063-1.055l.037-.032zM18.49 1.543H3.385c-.345 0-.676.135-.92.376-.244.242-.382.569-.382.91v2.918C3.576 6.095 4.688 7.419 4.688 9c0 1.58-1.112 2.905-2.605 3.253v2.918c0 .341.138.669.382.91.244.24.575.376.92.376H18.49c.345 0 .676-.135.92-.376s.382-.569.382-.91v-2.918c-1.493-.348-2.605-1.672-2.605-3.253 0-1.58 1.112-2.905 2.605-3.253V2.829c0-.341-.138-.668-.382-.91-.244-.24-.575-.376-.92-.376zm0-1.543c1.582 0 2.864 1.266 2.864 2.829v3.6c0 .426-.35.771-.781.771-1.007 0-1.823.806-1.823 1.8s.816 1.8 1.823 1.8c.431 0 .781.345.781.771v3.6c0 1.563-1.282 2.829-2.864 2.829H3.385C1.803 18 .521 16.734.521 15.171v-3.6c0-.426.35-.771.781-.771 1.007 0 1.823-.806 1.823-1.8s-.816-1.8-1.823-1.8c-.431 0-.781-.345-.781-.771v-3.6C.52 1.266 1.803 0 3.385 0H18.49z" mask="url(#83ka6rxa3c)"/>
                    </g>
                </g>
            </g>
        </g>
    </g>
</svg>
