<svg xmlns="http://www.w3.org/2000/svg" width="31" height="26">
    <defs>
        <linearGradient id="5jhshzxm8a" x1="0%" x2="100%" y1="0%" y2="0%">
            <stop offset="1%" stop-color="#E4D8CE"/>
            <stop offset="100%" stop-color="#ECDBCD"/>
        </linearGradient>
    </defs>
    <path fill="url(#5jhshzxm8a)" fill-rule="evenodd" d="M29.772 11.517h-5.979c-.678 0-1.228.571-1.228 1.274v.398c0 .704.55 1.273 1.228 1.273h5.979c.678 0 1.228-.569 1.228-1.273v-.398c0-.703-.55-1.274-1.228-1.274zM15.899.586c-1.86 1.528-5.752 3.67-8.552 5.729l-.004.002c-.032.02-.064.134-.096.153-.332.192-.48.724-2.278.724h-3.51C.559 7.194 0 7.63 0 8.612v8.731c0 .982.513 1.467 1.459 1.467h3.524c1.79.003 1.935.53 2.265.723.032.019.063.133.096.153l.004.002c2.712 2.059 6.63 4.368 8.552 5.832.578.442 2.503 1.218 2.503-1.511V1.981c0-2.729-1.94-1.857-2.504-1.395zm5.521 6.02c.318.579.947.724 1.407.325l4.915-4.281c.459-.399.574-1.192.257-1.772l-.18-.328c-.317-.578-.948-.723-1.406-.324l-4.915 4.28c-.459.4-.575 1.193-.257 1.772l.179.328zm1.406 12.465c-.459-.399-1.089-.254-1.406.323l-.18.328c-.318.579-.201 1.372.257 1.772l4.915 4.28c.459.399 1.089.254 1.406-.324l.18-.327c.317-.579.202-1.372-.257-1.772l-4.915-4.28z"/>
</svg>
