<svg xmlns="http://www.w3.org/2000/svg" xmlns:xlink="http://www.w3.org/1999/xlink" width="25" height="24" viewBox="0 0 25 24">
    <defs>
        <linearGradient id="vs73j0p3sb" x1="50%" x2="50%" y1="0%" y2="100%">
            <stop offset="0%" stop-color="#6D7EA1"/>
            <stop offset="100%" stop-color="#A5B1C8"/>
        </linearGradient>
        <linearGradient id="eovkk6sg9d" x1="100%" x2="-71.026%" y1="0%" y2="0%">
            <stop offset="0%" stop-color="#6D7FA1"/>
            <stop offset="100%" stop-color="#A6B1C8"/>
        </linearGradient>
        <path id="w4e96wi2pa" d="M13.723.29c-.169.172-.26.4-.257.642.003.244.101.47.275.637 1.521 1.465 2.394 3.478 2.394 5.525 0 4.016-3.216 7.283-7.17 7.283-3.953 0-7.17-3.267-7.17-7.283 0-2.082.885-4.06 2.428-5.429.19-.168.298-.4.307-.653.008-.248-.083-.48-.255-.656L4.21.291C4.04.117 3.816.03 3.593.03c-.208 0-.415.076-.578.23C1.099 2.075 0 4.566 0 7.095 0 12.115 4.022 16.2 8.965 16.2c4.946 0 8.97-4.085 8.97-9.106 0-2.53-1.1-5.02-3.016-6.835-.163-.154-.37-.231-.578-.231-.223 0-.446.088-.618.262"/>
    </defs>
    <g fill="none" fill-rule="evenodd">
        <g>
            <g>
                <g>
                    <g transform="translate(-10 -676) translate(0 664) translate(10 12) translate(3 5)">
                        <mask id="w2i8cntsuc" fill="#fff">
                            <use xlink:href="#w4e96wi2pa"/>
                        </mask>
                        <path fill="url(#vs73j0p3sb)" d="M13.723.29c-.169.172-.26.4-.257.642.003.244.101.47.275.637 1.521 1.465 2.394 3.478 2.394 5.525 0 4.016-3.216 7.283-7.17 7.283-3.953 0-7.17-3.267-7.17-7.283 0-2.082.885-4.06 2.428-5.429.19-.168.298-.4.307-.653.008-.248-.083-.48-.255-.656L4.21.291C4.04.117 3.816.03 3.593.03c-.208 0-.415.076-.578.23C1.099 2.075 0 4.566 0 7.095 0 12.115 4.022 16.2 8.965 16.2c4.946 0 8.97-4.085 8.97-9.106 0-2.53-1.1-5.02-3.016-6.835-.163-.154-.37-.231-.578-.231-.223 0-.446.088-.618.262" mask="url(#w2i8cntsuc)"/>
                    </g>
                    <path fill="url(#eovkk6sg9d)" d="M17.335 7H8.718C8.288 7 8 7.4 8 8s.287 1 .718 1h6.391l-1.149 1.2c-.287.3-.359 1-.144 1.4.144.3.36.4.575.4.144 0 .287-.1.43-.2l2.873-3c.216-.3.36-.7.287-1.1-.071-.4-.359-.7-.646-.7" transform="translate(-10 -676) translate(0 664) translate(10 12) rotate(-90 13 9.5)"/>
                </g>
            </g>
        </g>
    </g>
</svg>
