<svg xmlns="http://www.w3.org/2000/svg" xmlns:xlink="http://www.w3.org/1999/xlink" width="20" height="20" viewBox="0 0 20 20">
    <defs>
        <path id="la6s1zrzha" d="M0 0L14.7 0 14.7 15.888 0 15.888z"/>
    </defs>
    <g fill="none" fill-rule="evenodd">
        <g>
            <g>
                <g transform="translate(-12 -619) translate(0 588) translate(15 34)">
                    <mask id="9rnkn6oe9b" fill="#fff">
                        <use xlink:href="#la6s1zrzha"/>
                    </mask>
                    <path fill="#D2B79C" d="M3.905 6.676c-.21 0-.404-.112-.509-.294-.105-.182-.105-.406 0-.588.105-.182.3-.294.51-.294h6.546c.21 0 .404.112.51.294.104.182.104.406 0 .588-.106.182-.3.294-.51.294H3.905zm.075 3.69c-.236 0-.455-.126-.573-.33-.118-.206-.118-.458 0-.663.118-.204.337-.33.573-.33h4.08c.237 0 .456.126.574.33.118.205.118.457 0 .662-.118.205-.337.33-.573.33H3.98zm-2.79 1.756c.005.325.27.586.595.586h11.128c.326.001.591-.26.595-.586V3.146c-.004-.325-.269-.587-.595-.587h-2.791v.167c0 .33-.268.597-.597.597-.33 0-.597-.268-.597-.597v-.167H5.365v.167c-.014.319-.276.57-.596.57-.32 0-.583-.251-.596-.57v-.167h-2.39c-.324 0-.589.262-.593.587v8.976zm.595 1.766C.807 13.89.01 13.104 0 12.126V3.151c.01-.979.807-1.766 1.785-1.762h2.389V.597c.014-.32.276-.571.596-.571.32 0 .583.252.596.57v.793H8.93V.597c0-.33.267-.597.597-.597.33 0 .597.267.597.597v.792h2.792c.978-.004 1.775.783 1.785 1.762v8.975c-.01.978-.807 1.765-1.785 1.762H1.785z" mask="url(#9rnkn6oe9b)"/>
                    <circle cx="14" cy="2" r="2" fill="#EF4848"/>
                </g>
            </g>
        </g>
    </g>
</svg>
