<svg xmlns="http://www.w3.org/2000/svg" width="21" height="17" viewBox="0 0 21 17">
    <g fill="none" fill-rule="evenodd">
        <g>
            <g>
                <path stroke="#97A4C5" d="M19.125 13.132L11.857 2.087c-.885-1.45-2.33-1.45-3.215 0L1.374 13.132c-.886 1.45-.14 2.601 1.63 2.601h14.537c1.724 0 2.47-1.194 1.584-2.6z" transform="translate(-124 -371) translate(124 371)"/>
                <g fill="#97A4C5">
                    <path d="M.316.697C.316.325.633 0 .994 0c.362 0 .678.325.678.697v4.88c0 .371-.316.697-.678.697-.361 0-.678-.326-.678-.698V.697zM.95 9.248c-.543 0-.95-.465-.95-.976 0-.511.452-.976.95-.976.496 0 .948.465.948.976 0 .51-.407.976-.949.976z" transform="translate(-124 -371) translate(124 371) translate(9.333 4.668)"/>
                </g>
            </g>
        </g>
    </g>
</svg>
